<svg xmlns="http://www.w3.org/2000/svg" viewBox="0 0 512 512" width="512" height="512">
  <defs>
    <linearGradient id="bg" x1="0" y1="0" x2="1" y2="1">
      <stop offset="0" stop-color="#12274a"/>
      <stop offset="1" stop-color="#1d3c70"/>
    </linearGradient>
    <linearGradient id="mark" x1="0" y1="0" x2="1" y2="1">
      <stop offset="0" stop-color="#2f6bff"/>
      <stop offset="1" stop-color="#5b8bff"/>
    </linearGradient>
  </defs>
  <rect width="512" height="512" rx="112" fill="url(#bg)"/>
  <g transform="translate(256 256)">
    <circle r="150" fill="url(#mark)" opacity="0.18"/>
    <!-- ticket glyph -->
    <g fill="none" stroke="#ffffff" stroke-width="22" stroke-linecap="round" stroke-linejoin="round" transform="translate(-110 -70) scale(9.16)">
      <path d="M3 9a2 2 0 0 1 2-2h14a2 2 0 0 1 2 2 2 2 0 0 0 0 4 2 2 0 0 1-2 2H5a2 2 0 0 1-2-2 2 2 0 0 0 0-4z"/>
      <path d="M13 5v2M13 17v2M13 11v2"/>
    </g>
  </g>
</svg>
