<svg xmlns="http://www.w3.org/2000/svg" viewBox="0 0 256 256" width="256" height="256">
  <defs>
    <linearGradient id="bg" x1="0" y1="0" x2="1" y2="1">
      <stop offset="0" stop-color="#12274a"/>
      <stop offset="1" stop-color="#1d3c70"/>
    </linearGradient>
  </defs>
  <circle cx="128" cy="128" r="118" fill="url(#bg)"/>
  <g fill="#ffffff" transform="translate(128 128) scale(6) translate(-12 -12.25)">
    <path d="M12 22c1.1 0 2-.9 2-2h-4c0 1.1.89 2 2 2zm6-6v-5c0-3.07-1.64-5.64-4.5-6.32V4c0-.83-.67-1.5-1.5-1.5s-1.5.67-1.5 1.5v.68C7.63 5.36 6 7.92 6 11v5l-2 2v1h16v-1l-2-2z"/>
  </g>
</svg>
